<svg xmlns="http://www.w3.org/2000/svg" viewBox="0 0 483.391 483.391" width="512" height="512"><path d="M91.466 1.163c-5.2.8-7.3 7.1-3.6 10.8l32.5 32.5c15.4 15.4 15.4 40.4 0 55.9l-20 20c-15.4 15.4-40.4 15.4-55.9 0l-32.5-32.5c-3.7-3.7-10-1.6-10.8 3.6-4.8 32.5 5.2 66.8 30.3 91.8 24.5 24.5 58 34.7 90 30.5 14.1-1.9 28.2 2.9 38.2 12.9l242.9 242.9c18.5 18.5 48.4 18.4 66.9-.1s18.6-48.5.1-66.9l-242.9-243c-10-10-14.8-24.1-12.9-38.2 4.2-31.9-6-65.4-30.5-90-25.1-24.9-59.4-35-91.8-30.2zm350.1 420.9c5.4 5.4 5.4 14.1 0 19.5s-14.1 5.4-19.5 0l-247.8-247.8c-5.4-5.4-5.4-14.1 0-19.5s14.1-5.4 19.5 0l247.8 247.8z" data-original="#000000" class="active-path" data-old_color="#000000" fill="#0F6680"/></svg>