<svg xmlns="http://www.w3.org/2000/svg" width="512" height="512"><g fill="#676b6c"><path d="M375.451 315.733a8.536 8.536 0 0 0-8.533-8.533h-51.2c-4.71 0-8.533 3.823-8.533 8.533s3.823 8.533 8.533 8.533h51.2c4.71.001 8.533-3.822 8.533-8.533zM341.317 93.867V51.2c0-4.71-3.823-8.533-8.533-8.533s-8.533 3.823-8.533 8.533v42.667c0 23.526 19.14 42.667 42.667 42.667h76.8v162.133c0 4.71 3.823 8.533 8.533 8.533s8.533-3.823 8.533-8.533V128a8.536 8.536 0 0 0-8.533-8.533h-85.333c-14.115 0-25.601-11.486-25.601-25.6zm25.6 110.933H298.65a8.536 8.536 0 0 0-8.533 8.533 8.536 8.536 0 0 0 8.533 8.533h68.267a8.536 8.536 0 0 0 8.533-8.533c.001-4.71-3.822-8.533-8.533-8.533zm-93.866 8.533a8.536 8.536 0 0 0-8.533-8.533h-51.2a8.536 8.536 0 0 0-8.533 8.533 8.536 8.536 0 0 0 8.533 8.533h51.2c4.71.001 8.533-3.822 8.533-8.533zM213.317 256a8.536 8.536 0 0 0-8.533 8.533 8.536 8.536 0 0 0 8.533 8.533h17.067a8.536 8.536 0 0 0 8.533-8.533 8.536 8.536 0 0 0-8.533-8.533h-17.067zm0-85.333h85.333a8.536 8.536 0 0 0 8.533-8.533 8.536 8.536 0 0 0-8.533-8.533h-85.333a8.536 8.536 0 0 0-8.533 8.533 8.536 8.536 0 0 0 8.533 8.533zm51.2 102.4h85.333a8.536 8.536 0 0 0 8.533-8.533 8.536 8.536 0 0 0-8.533-8.533h-85.333a8.536 8.536 0 0 0-8.533 8.533 8.536 8.536 0 0 0 8.533 8.533zm51.2 85.333c-4.71 0-8.533 3.823-8.533 8.533s3.823 8.533 8.533 8.533h17.067c4.71 0 8.533-3.823 8.533-8.533s-3.823-8.533-8.533-8.533h-17.067zm-34.133-51.2h-68.267c-4.71 0-8.533 3.823-8.533 8.533s3.823 8.533 8.533 8.533h68.267c4.71 0 8.533-3.823 8.533-8.533s-3.823-8.533-8.533-8.533zm0 51.2h-68.267c-4.71 0-8.533 3.823-8.533 8.533s3.823 8.533 8.533 8.533h68.267c4.71 0 8.533-3.823 8.533-8.533s-3.823-8.533-8.533-8.533zm203.17-6.903l-17.067-17.067c-13.116-13.116-33.101-13.09-46.199 0L309.684 446.234a8.546 8.546 0 0 0-2.5 6.033v51.2a8.536 8.536 0 0 0 8.533 8.533h51.2a8.546 8.546 0 0 0 6.033-2.5l111.804-111.804c13.594-13.594 13.594-32.597 0-46.199zm-74.3 18.099l13.534 13.534-74.138 74.138-13.534-13.534 74.138-74.138zm-86.203 125.337v-39.134l39.134 39.134h-39.134zm51.2-12.066l-13.534-13.534 74.138-74.138 13.534 13.534-74.138 74.138zm97.237-97.237l-11.034 11.034-39.134-39.134 11.034-11.034c6.741-6.733 15.292-6.767 22.067 0l17.067 17.067c6.903 6.912 6.903 15.163 0 22.067z"/><path d="M281.584 494.933H59.717c-14.114 0-25.6-11.486-25.6-25.6V42.667c0-14.114 11.486-25.6 25.6-25.6h269.534L412.084 99.9a8.523 8.523 0 0 0 12.066 0 8.523 8.523 0 0 0 0-12.066L338.817 2.5a8.513 8.513 0 0 0-6.033-2.5H59.717C36.191 0 17.051 19.14 17.051 42.667v426.667c0 23.526 19.14 42.667 42.667 42.667h221.867c4.71 0 8.533-3.823 8.533-8.533s-3.824-8.535-8.534-8.535z"/><path d="M281.584 409.6h-68.267c-4.71 0-8.533 3.823-8.533 8.533s3.823 8.533 8.533 8.533h68.267c4.71 0 8.533-3.823 8.533-8.533s-3.823-8.533-8.533-8.533zM170.651 162.133a8.536 8.536 0 0 0-8.533-8.533h-51.2a8.536 8.536 0 0 0-8.533 8.533v51.2a8.536 8.536 0 0 0 8.533 8.533h51.2a8.536 8.536 0 0 0 8.533-8.533v-51.2zM153.584 204.8h-34.133v-34.133h34.133V204.8zm-42.667 221.867h51.2a8.536 8.536 0 0 0 8.533-8.533v-51.2a8.536 8.536 0 0 0-8.533-8.533h-51.2a8.536 8.536 0 0 0-8.533 8.533v51.2a8.536 8.536 0 0 0 8.533 8.533zm8.534-51.2h34.133V409.6h-34.133v-34.133zm2.5-53.701a8.54 8.54 0 0 0 6.878 2.457 8.513 8.513 0 0 0 6.255-3.755l34.133-51.2c2.611-3.925 1.553-9.225-2.364-11.836a8.533 8.533 0 0 0-11.836 2.364l-28.356 42.539-9.711-9.702c-3.336-3.337-8.73-3.337-12.066 0s-3.337 8.73 0 12.066l17.067 17.067z"/></g></svg>