<svg xmlns="http://www.w3.org/2000/svg" viewBox="0 0 349.667 349.667" width="512" height="512"><g fill="#676b6c"><path d="M174.833 197.204c24.125 0 80.846-29.034 80.846-98.603C255.68 44.145 248.329 0 174.833 0c-73.495 0-80.846 44.145-80.846 98.602 0 69.568 56.721 98.602 80.846 98.602zM106.07 82.146c5.679-10.983 17.963-23.675 44.381-23.112 0 0 15.746 38.194 93.05 21.042.312 6.101.41 12.326.41 18.526 0 34.005-15.015 55.075-27.612 66.762-15.872 14.727-33.494 20.072-41.466 20.072-7.972 0-25.594-5.345-41.466-20.072-12.597-11.687-27.612-32.757-27.612-66.762.001-5.501.081-11.021.315-16.456z"/><path d="M324.926 298.327c-4.127-25.665-12.625-58.724-29.668-70.472-11.638-8.024-52.243-29.718-69.582-38.982l-.3-.16a5.666 5.666 0 0 0-6.17.541c-9.083 7.131-19.033 11.937-29.573 14.284a5.669 5.669 0 0 0-4.067 3.521l-10.733 28.291-10.733-28.291a5.669 5.669 0 0 0-4.067-3.521c-10.54-2.347-20.49-7.153-29.573-14.284a5.664 5.664 0 0 0-6.17-.541c-17.133 9.155-58.235 31.291-69.831 39.107-19.619 13.217-28.198 61.052-29.718 70.507a5.674 5.674 0 0 0 .253 2.792c.702 1.982 18.708 48.548 149.839 48.548s149.137-46.566 149.839-48.548a5.664 5.664 0 0 0 .254-2.792zM264.5 282.666l-25.667 8-25.667-8v-13.81H264.5v13.81z"/></g></svg>