<svg xmlns="http://www.w3.org/2000/svg" viewBox="0 0 319.472 319.472" width="512" height="512"><g fill="#676b6c"><path d="M312.486 67.188l-.276-.718-59.456 59.456 44.125 44.126.348-.444c22.62-28.867 28.467-68.111 15.259-102.42z"/><path d="M182.321 85.324c0-4.732 1.842-9.182 5.189-12.527l65.514-65.514-.718-.276C240.229 2.357 227.516 0 214.521 0c-28.035 0-54.391 10.917-74.214 30.739-29.718 29.719-37.85 72.969-24.408 110.1L13.018 243.72C4.637 252.101.021 263.245.021 275.098c0 11.853 4.616 22.996 12.997 31.377s19.525 12.996 31.378 12.997c11.852 0 22.996-4.616 31.376-12.997l102.832-102.832c11.358 4.126 23.47 6.282 35.914 6.283h.005c23.021 0 44.86-7.3 63.149-21.106l.458-.347-90.621-90.623a17.601 17.601 0 0 1-5.188-12.526zM53.648 287.141c-5.881 5.881-15.416 5.881-21.297 0-5.88-5.881-5.88-15.416.001-21.295 5.88-5.881 15.415-5.881 21.295 0 5.881 5.88 5.881 15.415.001 21.295zm94.937-168.574a6.313 6.313 0 0 1 5.6-6.96l24.7-2.686a6.313 6.313 0 0 1 6.96 5.597 6.318 6.318 0 0 1-5.595 6.964l-24.702 2.684a6.317 6.317 0 0 1-6.963-5.599zm72.995 31.687a6.313 6.313 0 0 1-5.6 6.959l-24.699 2.686a6.312 6.312 0 0 1-6.961-5.596 6.316 6.316 0 0 1 5.596-6.963l24.701-2.684a6.315 6.315 0 0 1 6.963 5.598zm-17.868-17.869a6.315 6.315 0 0 1-5.597 6.963l-24.701 2.684a6.313 6.313 0 0 1-6.961-5.596 6.317 6.317 0 0 1 5.597-6.963l24.701-2.684a6.314 6.314 0 0 1 6.961 5.596z"/></g></svg>