<svg xmlns="http://www.w3.org/2000/svg" width="512" height="512"><path d="M256 166c-49.629 0-90 40.371-90 90s40.371 90 90 90 90-40.371 90-90-40.371-90-90-90zM111.5 90.289C116.768 81.367 120 71.094 120 60c0-33.091-26.909-60-60-60S0 26.909 0 60s26.909 60 60 60c11.094 0 21.367-3.232 30.289-8.5l71.307 71.307a120.226 120.226 0 0 1 21.211-21.211L111.5 90.289zM421 31c-33.091 0-60 26.909-60 60 0 11.094 3.232 21.367 8.5 30.289l-40.307 40.307a120.226 120.226 0 0 1 21.211 21.211l40.307-40.307c8.922 5.268 19.195 8.5 30.289 8.5 33.091 0 60-26.909 60-60s-26.909-60-60-60zM137.216 268.018l-24.264 5.367C102.92 254.235 83.08 241 60 241c-33.091 0-60 26.909-60 60s26.909 60 60 60c32.547 0 58.976-26.071 59.839-58.412l23.936-5.29c-3.428-9.278-5.526-19.092-6.559-29.28zM452 271c-20.839 0-39.192 10.693-49.951 26.862l-30.348-11.739c-2.574 9.855-6.418 19.107-11.268 27.808l32.038 12.415c-.123 1.563-.471 3.061-.471 4.654 0 33.091 26.909 60 60 60s60-26.909 60-60-26.909-60-60-60zM271 394.13v-19.646c-4.968.63-9.864 1.516-15 1.516s-10.032-.886-15-1.516v19.646c-25.807 6.707-45 29.989-45 57.87 0 33.091 26.909 60 60 60s60-26.909 60-60c0-27.881-19.193-51.163-45-57.87z" fill="#0f6680"/></svg>