<svg xmlns="http://www.w3.org/2000/svg" viewBox="0 0 297.23 297.23" width="512" height="512"><g fill="#0f6680"><path d="M149.416 61.02c14.139 0 25.642-11.503 25.642-25.642S163.555 9.736 149.416 9.736s-25.642 11.503-25.642 25.642 11.503 25.642 25.642 25.642zm-40.603 78.658h80.845a9.533 9.533 0 0 0 9.533-9.533v-35.25a22.57 22.57 0 0 0-15.544-21.448l-.043-.014-13.563-2.246a2.273 2.273 0 0 0-2.803 1.395l-15.389 42.224c-.888 2.436-4.333 2.436-5.221 0l-15.389-42.224a2.272 2.272 0 0 0-2.8-1.395l-13.566 2.243c-9.349 3.115-15.595 11.782-15.595 21.582v35.133c.002 5.265 4.27 9.533 9.535 9.533zm-58.625 69.158c14.139 0 25.642-11.503 25.642-25.642s-11.503-25.642-25.642-25.642-25.642 11.503-25.642 25.642 11.503 25.642 25.642 25.642zm34.18 12.426l-.043-.014-13.563-2.246a2.273 2.273 0 0 0-2.803 1.395L52.57 262.621c-.888 2.436-4.333 2.436-5.221 0L31.96 220.397a2.272 2.272 0 0 0-2.8-1.395l-13.566 2.243C6.246 224.36 0 233.027 0 242.827v35.133a9.533 9.533 0 0 0 9.533 9.533h80.845a9.533 9.533 0 0 0 9.533-9.533v-35.25a22.57 22.57 0 0 0-15.543-21.448zm162.909-12.426c14.139 0 25.642-11.503 25.642-25.642s-11.503-25.642-25.642-25.642-25.642 11.503-25.642 25.642 11.502 25.642 25.642 25.642zm34.409 12.426l-.043-.014-13.563-2.246a2.273 2.273 0 0 0-2.803 1.395l-15.389 42.224c-.888 2.436-4.333 2.436-5.221 0l-15.389-42.224a2.272 2.272 0 0 0-2.8-1.395l-13.566 2.243c-9.349 3.115-15.595 11.782-15.595 21.582v35.133a9.533 9.533 0 0 0 9.533 9.533h80.845a9.533 9.533 0 0 0 9.533-9.533v-35.25a22.566 22.566 0 0 0-15.542-21.448zm-123.814-74.368H140.95v38.55l-39.834 39.834a29.487 29.487 0 0 1 5.679 17.431v.822l42.616-42.617 40.975 40.976a29.598 29.598 0 0 1 6.417-17.515l-38.931-38.931v-38.55z"/><path d="M155.539 71.055c-.667-.726-1.641-1.092-2.627-1.092h-7.353c-.986 0-1.96.365-2.627 1.092a3.41 3.41 0 0 0-.449 4.018l3.93 5.925-1.84 15.522 3.623 9.638c.353.969 1.724.969 2.078 0l3.623-9.638-1.84-15.522 3.93-5.925a3.41 3.41 0 0 0-.448-4.018zm-99.28 147.846c-.667-.726-1.641-1.092-2.627-1.092h-7.353c-.986 0-1.96.365-2.627 1.092a3.41 3.41 0 0 0-.449 4.018l3.93 5.925-1.84 15.521 3.623 9.638c.353.969 1.724.969 2.077 0l3.623-9.638-1.84-15.521 3.93-5.925a3.408 3.408 0 0 0-.447-4.018zm197.318 0c-.667-.726-1.641-1.092-2.627-1.092h-7.353c-.986 0-1.96.365-2.627 1.092a3.41 3.41 0 0 0-.449 4.018l3.93 5.925-1.84 15.521 3.623 9.638c.353.969 1.724.969 2.077 0l3.623-9.638-1.84-15.521 3.93-5.925a3.406 3.406 0 0 0-.447-4.018z"/></g></svg>